<svg xmlns="http://www.w3.org/2000/svg" width="787" height="173">
<style>
  .month { font-size: 10px; fill: #8b949e; font-family: -apple-system, BlinkMacSystemFont, "Segoe UI", Helvetica, Arial, sans-serif; }
  .day { font-size: 9px; fill: #8b949e; font-family: -apple-system, BlinkMacSystemFont, "Segoe UI", Helvetica, Arial, sans-serif; }
  .title { font-size: 12px; fill: #c9d1d9; font-family: -apple-system, BlinkMacSystemFont, "Segoe UI", Helvetica, Arial, sans-serif; font-weight: 600; }
  .stats { font-size: 10px; fill: #8b949e; font-family: -apple-system, BlinkMacSystemFont, "Segoe UI", Helvetica, Arial, sans-serif; }
  rect.day-cell { rx: 2; ry: 2; }
  rect.day-cell:hover { stroke: #8b949e; stroke-width: 1; }
</style>
<rect width="787" height="173" fill="#0d1117"/>
<text x="35" y="15" class="title">Azure DevOps Contributions</text>
<text x="5" y="48" class="day">Mon</text>
<text x="5" y="76" class="day">Wed</text>
<text x="5" y="104" class="day">Fri</text>
<rect class="day-cell" x="35" y="25" width="11" height="11" fill="#161b22"><title>2024-12-15: 0 commits</title></rect>
<rect class="day-cell" x="35" y="39" width="11" height="11" fill="#161b22"><title>2024-12-16: 0 commits</title></rect>
<rect class="day-cell" x="35" y="53" width="11" height="11" fill="#161b22"><title>2024-12-17: 0 commits</title></rect>
<rect class="day-cell" x="35" y="67" width="11" height="11" fill="#161b22"><title>2024-12-18: 0 commits</title></rect>
<rect class="day-cell" x="35" y="81" width="11" height="11" fill="#161b22"><title>2024-12-19: 0 commits</title></rect>
<rect class="day-cell" x="35" y="95" width="11" height="11" fill="#161b22"><title>2024-12-20: 0 commits</title></rect>
<rect class="day-cell" x="35" y="109" width="11" height="11" fill="#161b22"><title>2024-12-21: 0 commits</title></rect>
<rect class="day-cell" x="49" y="25" width="11" height="11" fill="#161b22"><title>2024-12-22: 0 commits</title></rect>
<rect class="day-cell" x="49" y="39" width="11" height="11" fill="#161b22"><title>2024-12-23: 0 commits</title></rect>
<rect class="day-cell" x="49" y="53" width="11" height="11" fill="#161b22"><title>2024-12-24: 0 commits</title></rect>
<rect class="day-cell" x="49" y="67" width="11" height="11" fill="#161b22"><title>2024-12-25: 0 commits</title></rect>
<rect class="day-cell" x="49" y="81" width="11" height="11" fill="#161b22"><title>2024-12-26: 0 commits</title></rect>
<rect class="day-cell" x="49" y="95" width="11" height="11" fill="#161b22"><title>2024-12-27: 0 commits</title></rect>
<rect class="day-cell" x="49" y="109" width="11" height="11" fill="#161b22"><title>2024-12-28: 0 commits</title></rect>
<rect class="day-cell" x="63" y="25" width="11" height="11" fill="#161b22"><title>2024-12-29: 0 commits</title></rect>
<rect class="day-cell" x="63" y="39" width="11" height="11" fill="#161b22"><title>2024-12-30: 0 commits</title></rect>
<rect class="day-cell" x="63" y="53" width="11" height="11" fill="#161b22"><title>2024-12-31: 0 commits</title></rect>
<text x="63" y="20" class="month">Jan</text>
<rect class="day-cell" x="63" y="67" width="11" height="11" fill="#161b22"><title>2025-01-01: 0 commits</title></rect>
<rect class="day-cell" x="63" y="81" width="11" height="11" fill="#161b22"><title>2025-01-02: 0 commits</title></rect>
<rect class="day-cell" x="63" y="95" width="11" height="11" fill="#161b22"><title>2025-01-03: 0 commits</title></rect>
<rect class="day-cell" x="63" y="109" width="11" height="11" fill="#161b22"><title>2025-01-04: 0 commits</title></rect>
<rect class="day-cell" x="77" y="25" width="11" height="11" fill="#161b22"><title>2025-01-05: 0 commits</title></rect>
<rect class="day-cell" x="77" y="39" width="11" height="11" fill="#161b22"><title>2025-01-06: 0 commits</title></rect>
<rect class="day-cell" x="77" y="53" width="11" height="11" fill="#161b22"><title>2025-01-07: 0 commits</title></rect>
<rect class="day-cell" x="77" y="67" width="11" height="11" fill="#161b22"><title>2025-01-08: 0 commits</title></rect>
<rect class="day-cell" x="77" y="81" width="11" height="11" fill="#161b22"><title>2025-01-09: 0 commits</title></rect>
<rect class="day-cell" x="77" y="95" width="11" height="11" fill="#161b22"><title>2025-01-10: 0 commits</title></rect>
<rect class="day-cell" x="77" y="109" width="11" height="11" fill="#161b22"><title>2025-01-11: 0 commits</title></rect>
<rect class="day-cell" x="91" y="25" width="11" height="11" fill="#161b22"><title>2025-01-12: 0 commits</title></rect>
<rect class="day-cell" x="91" y="39" width="11" height="11" fill="#161b22"><title>2025-01-13: 0 commits</title></rect>
<rect class="day-cell" x="91" y="53" width="11" height="11" fill="#161b22"><title>2025-01-14: 0 commits</title></rect>
<rect class="day-cell" x="91" y="67" width="11" height="11" fill="#161b22"><title>2025-01-15: 0 commits</title></rect>
<rect class="day-cell" x="91" y="81" width="11" height="11" fill="#161b22"><title>2025-01-16: 0 commits</title></rect>
<rect class="day-cell" x="91" y="95" width="11" height="11" fill="#161b22"><title>2025-01-17: 0 commits</title></rect>
<rect class="day-cell" x="91" y="109" width="11" height="11" fill="#161b22"><title>2025-01-18: 0 commits</title></rect>
<rect class="day-cell" x="105" y="25" width="11" height="11" fill="#161b22"><title>2025-01-19: 0 commits</title></rect>
<rect class="day-cell" x="105" y="39" width="11" height="11" fill="#161b22"><title>2025-01-20: 0 commits</title></rect>
<rect class="day-cell" x="105" y="53" width="11" height="11" fill="#161b22"><title>2025-01-21: 0 commits</title></rect>
<rect class="day-cell" x="105" y="67" width="11" height="11" fill="#161b22"><title>2025-01-22: 0 commits</title></rect>
<rect class="day-cell" x="105" y="81" width="11" height="11" fill="#161b22"><title>2025-01-23: 0 commits</title></rect>
<rect class="day-cell" x="105" y="95" width="11" height="11" fill="#161b22"><title>2025-01-24: 0 commits</title></rect>
<rect class="day-cell" x="105" y="109" width="11" height="11" fill="#161b22"><title>2025-01-25: 0 commits</title></rect>
<rect class="day-cell" x="119" y="25" width="11" height="11" fill="#161b22"><title>2025-01-26: 0 commits</title></rect>
<rect class="day-cell" x="119" y="39" width="11" height="11" fill="#161b22"><title>2025-01-27: 0 commits</title></rect>
<rect class="day-cell" x="119" y="53" width="11" height="11" fill="#161b22"><title>2025-01-28: 0 commits</title></rect>
<rect class="day-cell" x="119" y="67" width="11" height="11" fill="#161b22"><title>2025-01-29: 0 commits</title></rect>
<rect class="day-cell" x="119" y="81" width="11" height="11" fill="#161b22"><title>2025-01-30: 0 commits</title></rect>
<rect class="day-cell" x="119" y="95" width="11" height="11" fill="#161b22"><title>2025-01-31: 0 commits</title></rect>
<text x="119" y="20" class="month">Feb</text>
<rect class="day-cell" x="119" y="109" width="11" height="11" fill="#161b22"><title>2025-02-01: 0 commits</title></rect>
<rect class="day-cell" x="133" y="25" width="11" height="11" fill="#161b22"><title>2025-02-02: 0 commits</title></rect>
<rect class="day-cell" x="133" y="39" width="11" height="11" fill="#161b22"><title>2025-02-03: 0 commits</title></rect>
<rect class="day-cell" x="133" y="53" width="11" height="11" fill="#161b22"><title>2025-02-04: 0 commits</title></rect>
<rect class="day-cell" x="133" y="67" width="11" height="11" fill="#161b22"><title>2025-02-05: 0 commits</title></rect>
<rect class="day-cell" x="133" y="81" width="11" height="11" fill="#161b22"><title>2025-02-06: 0 commits</title></rect>
<rect class="day-cell" x="133" y="95" width="11" height="11" fill="#161b22"><title>2025-02-07: 0 commits</title></rect>
<rect class="day-cell" x="133" y="109" width="11" height="11" fill="#161b22"><title>2025-02-08: 0 commits</title></rect>
<rect class="day-cell" x="147" y="25" width="11" height="11" fill="#161b22"><title>2025-02-09: 0 commits</title></rect>
<rect class="day-cell" x="147" y="39" width="11" height="11" fill="#161b22"><title>2025-02-10: 0 commits</title></rect>
<rect class="day-cell" x="147" y="53" width="11" height="11" fill="#161b22"><title>2025-02-11: 0 commits</title></rect>
<rect class="day-cell" x="147" y="67" width="11" height="11" fill="#161b22"><title>2025-02-12: 0 commits</title></rect>
<rect class="day-cell" x="147" y="81" width="11" height="11" fill="#161b22"><title>2025-02-13: 0 commits</title></rect>
<rect class="day-cell" x="147" y="95" width="11" height="11" fill="#161b22"><title>2025-02-14: 0 commits</title></rect>
<rect class="day-cell" x="147" y="109" width="11" height="11" fill="#161b22"><title>2025-02-15: 0 commits</title></rect>
<rect class="day-cell" x="161" y="25" width="11" height="11" fill="#161b22"><title>2025-02-16: 0 commits</title></rect>
<rect class="day-cell" x="161" y="39" width="11" height="11" fill="#161b22"><title>2025-02-17: 0 commits</title></rect>
<rect class="day-cell" x="161" y="53" width="11" height="11" fill="#161b22"><title>2025-02-18: 0 commits</title></rect>
<rect class="day-cell" x="161" y="67" width="11" height="11" fill="#161b22"><title>2025-02-19: 0 commits</title></rect>
<rect class="day-cell" x="161" y="81" width="11" height="11" fill="#161b22"><title>2025-02-20: 0 commits</title></rect>
<rect class="day-cell" x="161" y="95" width="11" height="11" fill="#161b22"><title>2025-02-21: 0 commits</title></rect>
<rect class="day-cell" x="161" y="109" width="11" height="11" fill="#161b22"><title>2025-02-22: 0 commits</title></rect>
<rect class="day-cell" x="175" y="25" width="11" height="11" fill="#161b22"><title>2025-02-23: 0 commits</title></rect>
<rect class="day-cell" x="175" y="39" width="11" height="11" fill="#161b22"><title>2025-02-24: 0 commits</title></rect>
<rect class="day-cell" x="175" y="53" width="11" height="11" fill="#161b22"><title>2025-02-25: 0 commits</title></rect>
<rect class="day-cell" x="175" y="67" width="11" height="11" fill="#161b22"><title>2025-02-26: 0 commits</title></rect>
<rect class="day-cell" x="175" y="81" width="11" height="11" fill="#161b22"><title>2025-02-27: 0 commits</title></rect>
<rect class="day-cell" x="175" y="95" width="11" height="11" fill="#161b22"><title>2025-02-28: 0 commits</title></rect>
<text x="175" y="20" class="month">Mar</text>
<rect class="day-cell" x="175" y="109" width="11" height="11" fill="#161b22"><title>2025-03-01: 0 commits</title></rect>
<rect class="day-cell" x="189" y="25" width="11" height="11" fill="#161b22"><title>2025-03-02: 0 commits</title></rect>
<rect class="day-cell" x="189" y="39" width="11" height="11" fill="#161b22"><title>2025-03-03: 0 commits</title></rect>
<rect class="day-cell" x="189" y="53" width="11" height="11" fill="#161b22"><title>2025-03-04: 0 commits</title></rect>
<rect class="day-cell" x="189" y="67" width="11" height="11" fill="#161b22"><title>2025-03-05: 0 commits</title></rect>
<rect class="day-cell" x="189" y="81" width="11" height="11" fill="#161b22"><title>2025-03-06: 0 commits</title></rect>
<rect class="day-cell" x="189" y="95" width="11" height="11" fill="#161b22"><title>2025-03-07: 0 commits</title></rect>
<rect class="day-cell" x="189" y="109" width="11" height="11" fill="#161b22"><title>2025-03-08: 0 commits</title></rect>
<rect class="day-cell" x="203" y="25" width="11" height="11" fill="#161b22"><title>2025-03-09: 0 commits</title></rect>
<rect class="day-cell" x="203" y="39" width="11" height="11" fill="#161b22"><title>2025-03-10: 0 commits</title></rect>
<rect class="day-cell" x="203" y="53" width="11" height="11" fill="#161b22"><title>2025-03-11: 0 commits</title></rect>
<rect class="day-cell" x="203" y="67" width="11" height="11" fill="#161b22"><title>2025-03-12: 0 commits</title></rect>
<rect class="day-cell" x="203" y="81" width="11" height="11" fill="#161b22"><title>2025-03-13: 0 commits</title></rect>
<rect class="day-cell" x="203" y="95" width="11" height="11" fill="#161b22"><title>2025-03-14: 0 commits</title></rect>
<rect class="day-cell" x="203" y="109" width="11" height="11" fill="#161b22"><title>2025-03-15: 0 commits</title></rect>
<rect class="day-cell" x="217" y="25" width="11" height="11" fill="#161b22"><title>2025-03-16: 0 commits</title></rect>
<rect class="day-cell" x="217" y="39" width="11" height="11" fill="#161b22"><title>2025-03-17: 0 commits</title></rect>
<rect class="day-cell" x="217" y="53" width="11" height="11" fill="#161b22"><title>2025-03-18: 0 commits</title></rect>
<rect class="day-cell" x="217" y="67" width="11" height="11" fill="#161b22"><title>2025-03-19: 0 commits</title></rect>
<rect class="day-cell" x="217" y="81" width="11" height="11" fill="#161b22"><title>2025-03-20: 0 commits</title></rect>
<rect class="day-cell" x="217" y="95" width="11" height="11" fill="#161b22"><title>2025-03-21: 0 commits</title></rect>
<rect class="day-cell" x="217" y="109" width="11" height="11" fill="#161b22"><title>2025-03-22: 0 commits</title></rect>
<rect class="day-cell" x="231" y="25" width="11" height="11" fill="#161b22"><title>2025-03-23: 0 commits</title></rect>
<rect class="day-cell" x="231" y="39" width="11" height="11" fill="#161b22"><title>2025-03-24: 0 commits</title></rect>
<rect class="day-cell" x="231" y="53" width="11" height="11" fill="#161b22"><title>2025-03-25: 0 commits</title></rect>
<rect class="day-cell" x="231" y="67" width="11" height="11" fill="#161b22"><title>2025-03-26: 0 commits</title></rect>
<rect class="day-cell" x="231" y="81" width="11" height="11" fill="#161b22"><title>2025-03-27: 0 commits</title></rect>
<rect class="day-cell" x="231" y="95" width="11" height="11" fill="#161b22"><title>2025-03-28: 0 commits</title></rect>
<rect class="day-cell" x="231" y="109" width="11" height="11" fill="#161b22"><title>2025-03-29: 0 commits</title></rect>
<rect class="day-cell" x="245" y="25" width="11" height="11" fill="#161b22"><title>2025-03-30: 0 commits</title></rect>
<rect class="day-cell" x="245" y="39" width="11" height="11" fill="#161b22"><title>2025-03-31: 0 commits</title></rect>
<text x="245" y="20" class="month">Apr</text>
<rect class="day-cell" x="245" y="53" width="11" height="11" fill="#161b22"><title>2025-04-01: 0 commits</title></rect>
<rect class="day-cell" x="245" y="67" width="11" height="11" fill="#161b22"><title>2025-04-02: 0 commits</title></rect>
<rect class="day-cell" x="245" y="81" width="11" height="11" fill="#161b22"><title>2025-04-03: 0 commits</title></rect>
<rect class="day-cell" x="245" y="95" width="11" height="11" fill="#161b22"><title>2025-04-04: 0 commits</title></rect>
<rect class="day-cell" x="245" y="109" width="11" height="11" fill="#161b22"><title>2025-04-05: 0 commits</title></rect>
<rect class="day-cell" x="259" y="25" width="11" height="11" fill="#161b22"><title>2025-04-06: 0 commits</title></rect>
<rect class="day-cell" x="259" y="39" width="11" height="11" fill="#161b22"><title>2025-04-07: 0 commits</title></rect>
<rect class="day-cell" x="259" y="53" width="11" height="11" fill="#161b22"><title>2025-04-08: 0 commits</title></rect>
<rect class="day-cell" x="259" y="67" width="11" height="11" fill="#161b22"><title>2025-04-09: 0 commits</title></rect>
<rect class="day-cell" x="259" y="81" width="11" height="11" fill="#161b22"><title>2025-04-10: 0 commits</title></rect>
<rect class="day-cell" x="259" y="95" width="11" height="11" fill="#161b22"><title>2025-04-11: 0 commits</title></rect>
<rect class="day-cell" x="259" y="109" width="11" height="11" fill="#161b22"><title>2025-04-12: 0 commits</title></rect>
<rect class="day-cell" x="273" y="25" width="11" height="11" fill="#161b22"><title>2025-04-13: 0 commits</title></rect>
<rect class="day-cell" x="273" y="39" width="11" height="11" fill="#161b22"><title>2025-04-14: 0 commits</title></rect>
<rect class="day-cell" x="273" y="53" width="11" height="11" fill="#161b22"><title>2025-04-15: 0 commits</title></rect>
<rect class="day-cell" x="273" y="67" width="11" height="11" fill="#161b22"><title>2025-04-16: 0 commits</title></rect>
<rect class="day-cell" x="273" y="81" width="11" height="11" fill="#161b22"><title>2025-04-17: 0 commits</title></rect>
<rect class="day-cell" x="273" y="95" width="11" height="11" fill="#161b22"><title>2025-04-18: 0 commits</title></rect>
<rect class="day-cell" x="273" y="109" width="11" height="11" fill="#161b22"><title>2025-04-19: 0 commits</title></rect>
<rect class="day-cell" x="287" y="25" width="11" height="11" fill="#161b22"><title>2025-04-20: 0 commits</title></rect>
<rect class="day-cell" x="287" y="39" width="11" height="11" fill="#161b22"><title>2025-04-21: 0 commits</title></rect>
<rect class="day-cell" x="287" y="53" width="11" height="11" fill="#161b22"><title>2025-04-22: 0 commits</title></rect>
<rect class="day-cell" x="287" y="67" width="11" height="11" fill="#161b22"><title>2025-04-23: 0 commits</title></rect>
<rect class="day-cell" x="287" y="81" width="11" height="11" fill="#161b22"><title>2025-04-24: 0 commits</title></rect>
<rect class="day-cell" x="287" y="95" width="11" height="11" fill="#161b22"><title>2025-04-25: 0 commits</title></rect>
<rect class="day-cell" x="287" y="109" width="11" height="11" fill="#161b22"><title>2025-04-26: 0 commits</title></rect>
<rect class="day-cell" x="301" y="25" width="11" height="11" fill="#161b22"><title>2025-04-27: 0 commits</title></rect>
<rect class="day-cell" x="301" y="39" width="11" height="11" fill="#161b22"><title>2025-04-28: 0 commits</title></rect>
<rect class="day-cell" x="301" y="53" width="11" height="11" fill="#161b22"><title>2025-04-29: 0 commits</title></rect>
<rect class="day-cell" x="301" y="67" width="11" height="11" fill="#161b22"><title>2025-04-30: 0 commits</title></rect>
<text x="301" y="20" class="month">May</text>
<rect class="day-cell" x="301" y="81" width="11" height="11" fill="#161b22"><title>2025-05-01: 0 commits</title></rect>
<rect class="day-cell" x="301" y="95" width="11" height="11" fill="#161b22"><title>2025-05-02: 0 commits</title></rect>
<rect class="day-cell" x="301" y="109" width="11" height="11" fill="#161b22"><title>2025-05-03: 0 commits</title></rect>
<rect class="day-cell" x="315" y="25" width="11" height="11" fill="#161b22"><title>2025-05-04: 0 commits</title></rect>
<rect class="day-cell" x="315" y="39" width="11" height="11" fill="#161b22"><title>2025-05-05: 0 commits</title></rect>
<rect class="day-cell" x="315" y="53" width="11" height="11" fill="#161b22"><title>2025-05-06: 0 commits</title></rect>
<rect class="day-cell" x="315" y="67" width="11" height="11" fill="#161b22"><title>2025-05-07: 0 commits</title></rect>
<rect class="day-cell" x="315" y="81" width="11" height="11" fill="#161b22"><title>2025-05-08: 0 commits</title></rect>
<rect class="day-cell" x="315" y="95" width="11" height="11" fill="#161b22"><title>2025-05-09: 0 commits</title></rect>
<rect class="day-cell" x="315" y="109" width="11" height="11" fill="#161b22"><title>2025-05-10: 0 commits</title></rect>
<rect class="day-cell" x="329" y="25" width="11" height="11" fill="#161b22"><title>2025-05-11: 0 commits</title></rect>
<rect class="day-cell" x="329" y="39" width="11" height="11" fill="#161b22"><title>2025-05-12: 0 commits</title></rect>
<rect class="day-cell" x="329" y="53" width="11" height="11" fill="#161b22"><title>2025-05-13: 0 commits</title></rect>
<rect class="day-cell" x="329" y="67" width="11" height="11" fill="#161b22"><title>2025-05-14: 0 commits</title></rect>
<rect class="day-cell" x="329" y="81" width="11" height="11" fill="#161b22"><title>2025-05-15: 0 commits</title></rect>
<rect class="day-cell" x="329" y="95" width="11" height="11" fill="#161b22"><title>2025-05-16: 0 commits</title></rect>
<rect class="day-cell" x="329" y="109" width="11" height="11" fill="#161b22"><title>2025-05-17: 0 commits</title></rect>
<rect class="day-cell" x="343" y="25" width="11" height="11" fill="#161b22"><title>2025-05-18: 0 commits</title></rect>
<rect class="day-cell" x="343" y="39" width="11" height="11" fill="#161b22"><title>2025-05-19: 0 commits</title></rect>
<rect class="day-cell" x="343" y="53" width="11" height="11" fill="#161b22"><title>2025-05-20: 0 commits</title></rect>
<rect class="day-cell" x="343" y="67" width="11" height="11" fill="#161b22"><title>2025-05-21: 0 commits</title></rect>
<rect class="day-cell" x="343" y="81" width="11" height="11" fill="#161b22"><title>2025-05-22: 0 commits</title></rect>
<rect class="day-cell" x="343" y="95" width="11" height="11" fill="#161b22"><title>2025-05-23: 0 commits</title></rect>
<rect class="day-cell" x="343" y="109" width="11" height="11" fill="#161b22"><title>2025-05-24: 0 commits</title></rect>
<rect class="day-cell" x="357" y="25" width="11" height="11" fill="#161b22"><title>2025-05-25: 0 commits</title></rect>
<rect class="day-cell" x="357" y="39" width="11" height="11" fill="#161b22"><title>2025-05-26: 0 commits</title></rect>
<rect class="day-cell" x="357" y="53" width="11" height="11" fill="#161b22"><title>2025-05-27: 0 commits</title></rect>
<rect class="day-cell" x="357" y="67" width="11" height="11" fill="#161b22"><title>2025-05-28: 0 commits</title></rect>
<rect class="day-cell" x="357" y="81" width="11" height="11" fill="#161b22"><title>2025-05-29: 0 commits</title></rect>
<rect class="day-cell" x="357" y="95" width="11" height="11" fill="#161b22"><title>2025-05-30: 0 commits</title></rect>
<rect class="day-cell" x="357" y="109" width="11" height="11" fill="#161b22"><title>2025-05-31: 0 commits</title></rect>
<text x="371" y="20" class="month">Jun</text>
<rect class="day-cell" x="371" y="25" width="11" height="11" fill="#161b22"><title>2025-06-01: 0 commits</title></rect>
<rect class="day-cell" x="371" y="39" width="11" height="11" fill="#161b22"><title>2025-06-02: 0 commits</title></rect>
<rect class="day-cell" x="371" y="53" width="11" height="11" fill="#161b22"><title>2025-06-03: 0 commits</title></rect>
<rect class="day-cell" x="371" y="67" width="11" height="11" fill="#161b22"><title>2025-06-04: 0 commits</title></rect>
<rect class="day-cell" x="371" y="81" width="11" height="11" fill="#161b22"><title>2025-06-05: 0 commits</title></rect>
<rect class="day-cell" x="371" y="95" width="11" height="11" fill="#161b22"><title>2025-06-06: 0 commits</title></rect>
<rect class="day-cell" x="371" y="109" width="11" height="11" fill="#161b22"><title>2025-06-07: 0 commits</title></rect>
<rect class="day-cell" x="385" y="25" width="11" height="11" fill="#161b22"><title>2025-06-08: 0 commits</title></rect>
<rect class="day-cell" x="385" y="39" width="11" height="11" fill="#161b22"><title>2025-06-09: 0 commits</title></rect>
<rect class="day-cell" x="385" y="53" width="11" height="11" fill="#161b22"><title>2025-06-10: 0 commits</title></rect>
<rect class="day-cell" x="385" y="67" width="11" height="11" fill="#161b22"><title>2025-06-11: 0 commits</title></rect>
<rect class="day-cell" x="385" y="81" width="11" height="11" fill="#161b22"><title>2025-06-12: 0 commits</title></rect>
<rect class="day-cell" x="385" y="95" width="11" height="11" fill="#161b22"><title>2025-06-13: 0 commits</title></rect>
<rect class="day-cell" x="385" y="109" width="11" height="11" fill="#161b22"><title>2025-06-14: 0 commits</title></rect>
<rect class="day-cell" x="399" y="25" width="11" height="11" fill="#161b22"><title>2025-06-15: 0 commits</title></rect>
<rect class="day-cell" x="399" y="39" width="11" height="11" fill="#161b22"><title>2025-06-16: 0 commits</title></rect>
<rect class="day-cell" x="399" y="53" width="11" height="11" fill="#161b22"><title>2025-06-17: 0 commits</title></rect>
<rect class="day-cell" x="399" y="67" width="11" height="11" fill="#161b22"><title>2025-06-18: 0 commits</title></rect>
<rect class="day-cell" x="399" y="81" width="11" height="11" fill="#161b22"><title>2025-06-19: 0 commits</title></rect>
<rect class="day-cell" x="399" y="95" width="11" height="11" fill="#161b22"><title>2025-06-20: 0 commits</title></rect>
<rect class="day-cell" x="399" y="109" width="11" height="11" fill="#161b22"><title>2025-06-21: 0 commits</title></rect>
<rect class="day-cell" x="413" y="25" width="11" height="11" fill="#161b22"><title>2025-06-22: 0 commits</title></rect>
<rect class="day-cell" x="413" y="39" width="11" height="11" fill="#161b22"><title>2025-06-23: 0 commits</title></rect>
<rect class="day-cell" x="413" y="53" width="11" height="11" fill="#161b22"><title>2025-06-24: 0 commits</title></rect>
<rect class="day-cell" x="413" y="67" width="11" height="11" fill="#161b22"><title>2025-06-25: 0 commits</title></rect>
<rect class="day-cell" x="413" y="81" width="11" height="11" fill="#161b22"><title>2025-06-26: 0 commits</title></rect>
<rect class="day-cell" x="413" y="95" width="11" height="11" fill="#161b22"><title>2025-06-27: 0 commits</title></rect>
<rect class="day-cell" x="413" y="109" width="11" height="11" fill="#161b22"><title>2025-06-28: 0 commits</title></rect>
<rect class="day-cell" x="427" y="25" width="11" height="11" fill="#161b22"><title>2025-06-29: 0 commits</title></rect>
<rect class="day-cell" x="427" y="39" width="11" height="11" fill="#161b22"><title>2025-06-30: 0 commits</title></rect>
<text x="427" y="20" class="month">Jul</text>
<rect class="day-cell" x="427" y="53" width="11" height="11" fill="#161b22"><title>2025-07-01: 0 commits</title></rect>
<rect class="day-cell" x="427" y="67" width="11" height="11" fill="#161b22"><title>2025-07-02: 0 commits</title></rect>
<rect class="day-cell" x="427" y="81" width="11" height="11" fill="#161b22"><title>2025-07-03: 0 commits</title></rect>
<rect class="day-cell" x="427" y="95" width="11" height="11" fill="#161b22"><title>2025-07-04: 0 commits</title></rect>
<rect class="day-cell" x="427" y="109" width="11" height="11" fill="#161b22"><title>2025-07-05: 0 commits</title></rect>
<rect class="day-cell" x="441" y="25" width="11" height="11" fill="#161b22"><title>2025-07-06: 0 commits</title></rect>
<rect class="day-cell" x="441" y="39" width="11" height="11" fill="#161b22"><title>2025-07-07: 0 commits</title></rect>
<rect class="day-cell" x="441" y="53" width="11" height="11" fill="#161b22"><title>2025-07-08: 0 commits</title></rect>
<rect class="day-cell" x="441" y="67" width="11" height="11" fill="#161b22"><title>2025-07-09: 0 commits</title></rect>
<rect class="day-cell" x="441" y="81" width="11" height="11" fill="#161b22"><title>2025-07-10: 0 commits</title></rect>
<rect class="day-cell" x="441" y="95" width="11" height="11" fill="#161b22"><title>2025-07-11: 0 commits</title></rect>
<rect class="day-cell" x="441" y="109" width="11" height="11" fill="#161b22"><title>2025-07-12: 0 commits</title></rect>
<rect class="day-cell" x="455" y="25" width="11" height="11" fill="#161b22"><title>2025-07-13: 0 commits</title></rect>
<rect class="day-cell" x="455" y="39" width="11" height="11" fill="#161b22"><title>2025-07-14: 0 commits</title></rect>
<rect class="day-cell" x="455" y="53" width="11" height="11" fill="#161b22"><title>2025-07-15: 0 commits</title></rect>
<rect class="day-cell" x="455" y="67" width="11" height="11" fill="#161b22"><title>2025-07-16: 0 commits</title></rect>
<rect class="day-cell" x="455" y="81" width="11" height="11" fill="#161b22"><title>2025-07-17: 0 commits</title></rect>
<rect class="day-cell" x="455" y="95" width="11" height="11" fill="#161b22"><title>2025-07-18: 0 commits</title></rect>
<rect class="day-cell" x="455" y="109" width="11" height="11" fill="#161b22"><title>2025-07-19: 0 commits</title></rect>
<rect class="day-cell" x="469" y="25" width="11" height="11" fill="#161b22"><title>2025-07-20: 0 commits</title></rect>
<rect class="day-cell" x="469" y="39" width="11" height="11" fill="#161b22"><title>2025-07-21: 0 commits</title></rect>
<rect class="day-cell" x="469" y="53" width="11" height="11" fill="#161b22"><title>2025-07-22: 0 commits</title></rect>
<rect class="day-cell" x="469" y="67" width="11" height="11" fill="#161b22"><title>2025-07-23: 0 commits</title></rect>
<rect class="day-cell" x="469" y="81" width="11" height="11" fill="#161b22"><title>2025-07-24: 0 commits</title></rect>
<rect class="day-cell" x="469" y="95" width="11" height="11" fill="#161b22"><title>2025-07-25: 0 commits</title></rect>
<rect class="day-cell" x="469" y="109" width="11" height="11" fill="#161b22"><title>2025-07-26: 0 commits</title></rect>
<rect class="day-cell" x="483" y="25" width="11" height="11" fill="#161b22"><title>2025-07-27: 0 commits</title></rect>
<rect class="day-cell" x="483" y="39" width="11" height="11" fill="#161b22"><title>2025-07-28: 0 commits</title></rect>
<rect class="day-cell" x="483" y="53" width="11" height="11" fill="#161b22"><title>2025-07-29: 0 commits</title></rect>
<rect class="day-cell" x="483" y="67" width="11" height="11" fill="#161b22"><title>2025-07-30: 0 commits</title></rect>
<rect class="day-cell" x="483" y="81" width="11" height="11" fill="#161b22"><title>2025-07-31: 0 commits</title></rect>
<text x="483" y="20" class="month">Aug</text>
<rect class="day-cell" x="483" y="95" width="11" height="11" fill="#161b22"><title>2025-08-01: 0 commits</title></rect>
<rect class="day-cell" x="483" y="109" width="11" height="11" fill="#161b22"><title>2025-08-02: 0 commits</title></rect>
<rect class="day-cell" x="497" y="25" width="11" height="11" fill="#161b22"><title>2025-08-03: 0 commits</title></rect>
<rect class="day-cell" x="497" y="39" width="11" height="11" fill="#161b22"><title>2025-08-04: 0 commits</title></rect>
<rect class="day-cell" x="497" y="53" width="11" height="11" fill="#161b22"><title>2025-08-05: 0 commits</title></rect>
<rect class="day-cell" x="497" y="67" width="11" height="11" fill="#161b22"><title>2025-08-06: 0 commits</title></rect>
<rect class="day-cell" x="497" y="81" width="11" height="11" fill="#161b22"><title>2025-08-07: 0 commits</title></rect>
<rect class="day-cell" x="497" y="95" width="11" height="11" fill="#161b22"><title>2025-08-08: 0 commits</title></rect>
<rect class="day-cell" x="497" y="109" width="11" height="11" fill="#161b22"><title>2025-08-09: 0 commits</title></rect>
<rect class="day-cell" x="511" y="25" width="11" height="11" fill="#161b22"><title>2025-08-10: 0 commits</title></rect>
<rect class="day-cell" x="511" y="39" width="11" height="11" fill="#161b22"><title>2025-08-11: 0 commits</title></rect>
<rect class="day-cell" x="511" y="53" width="11" height="11" fill="#161b22"><title>2025-08-12: 0 commits</title></rect>
<rect class="day-cell" x="511" y="67" width="11" height="11" fill="#161b22"><title>2025-08-13: 0 commits</title></rect>
<rect class="day-cell" x="511" y="81" width="11" height="11" fill="#161b22"><title>2025-08-14: 0 commits</title></rect>
<rect class="day-cell" x="511" y="95" width="11" height="11" fill="#161b22"><title>2025-08-15: 0 commits</title></rect>
<rect class="day-cell" x="511" y="109" width="11" height="11" fill="#161b22"><title>2025-08-16: 0 commits</title></rect>
<rect class="day-cell" x="525" y="25" width="11" height="11" fill="#161b22"><title>2025-08-17: 0 commits</title></rect>
<rect class="day-cell" x="525" y="39" width="11" height="11" fill="#161b22"><title>2025-08-18: 0 commits</title></rect>
<rect class="day-cell" x="525" y="53" width="11" height="11" fill="#161b22"><title>2025-08-19: 0 commits</title></rect>
<rect class="day-cell" x="525" y="67" width="11" height="11" fill="#161b22"><title>2025-08-20: 0 commits</title></rect>
<rect class="day-cell" x="525" y="81" width="11" height="11" fill="#161b22"><title>2025-08-21: 0 commits</title></rect>
<rect class="day-cell" x="525" y="95" width="11" height="11" fill="#161b22"><title>2025-08-22: 0 commits</title></rect>
<rect class="day-cell" x="525" y="109" width="11" height="11" fill="#161b22"><title>2025-08-23: 0 commits</title></rect>
<rect class="day-cell" x="539" y="25" width="11" height="11" fill="#161b22"><title>2025-08-24: 0 commits</title></rect>
<rect class="day-cell" x="539" y="39" width="11" height="11" fill="#161b22"><title>2025-08-25: 0 commits</title></rect>
<rect class="day-cell" x="539" y="53" width="11" height="11" fill="#161b22"><title>2025-08-26: 0 commits</title></rect>
<rect class="day-cell" x="539" y="67" width="11" height="11" fill="#161b22"><title>2025-08-27: 0 commits</title></rect>
<rect class="day-cell" x="539" y="81" width="11" height="11" fill="#161b22"><title>2025-08-28: 0 commits</title></rect>
<rect class="day-cell" x="539" y="95" width="11" height="11" fill="#161b22"><title>2025-08-29: 0 commits</title></rect>
<rect class="day-cell" x="539" y="109" width="11" height="11" fill="#161b22"><title>2025-08-30: 0 commits</title></rect>
<rect class="day-cell" x="553" y="25" width="11" height="11" fill="#161b22"><title>2025-08-31: 0 commits</title></rect>
<text x="553" y="20" class="month">Sep</text>
<rect class="day-cell" x="553" y="39" width="11" height="11" fill="#161b22"><title>2025-09-01: 0 commits</title></rect>
<rect class="day-cell" x="553" y="53" width="11" height="11" fill="#161b22"><title>2025-09-02: 0 commits</title></rect>
<rect class="day-cell" x="553" y="67" width="11" height="11" fill="#161b22"><title>2025-09-03: 0 commits</title></rect>
<rect class="day-cell" x="553" y="81" width="11" height="11" fill="#161b22"><title>2025-09-04: 0 commits</title></rect>
<rect class="day-cell" x="553" y="95" width="11" height="11" fill="#161b22"><title>2025-09-05: 0 commits</title></rect>
<rect class="day-cell" x="553" y="109" width="11" height="11" fill="#161b22"><title>2025-09-06: 0 commits</title></rect>
<rect class="day-cell" x="567" y="25" width="11" height="11" fill="#161b22"><title>2025-09-07: 0 commits</title></rect>
<rect class="day-cell" x="567" y="39" width="11" height="11" fill="#161b22"><title>2025-09-08: 0 commits</title></rect>
<rect class="day-cell" x="567" y="53" width="11" height="11" fill="#161b22"><title>2025-09-09: 0 commits</title></rect>
<rect class="day-cell" x="567" y="67" width="11" height="11" fill="#161b22"><title>2025-09-10: 0 commits</title></rect>
<rect class="day-cell" x="567" y="81" width="11" height="11" fill="#161b22"><title>2025-09-11: 0 commits</title></rect>
<rect class="day-cell" x="567" y="95" width="11" height="11" fill="#161b22"><title>2025-09-12: 0 commits</title></rect>
<rect class="day-cell" x="567" y="109" width="11" height="11" fill="#161b22"><title>2025-09-13: 0 commits</title></rect>
<rect class="day-cell" x="581" y="25" width="11" height="11" fill="#161b22"><title>2025-09-14: 0 commits</title></rect>
<rect class="day-cell" x="581" y="39" width="11" height="11" fill="#161b22"><title>2025-09-15: 0 commits</title></rect>
<rect class="day-cell" x="581" y="53" width="11" height="11" fill="#161b22"><title>2025-09-16: 0 commits</title></rect>
<rect class="day-cell" x="581" y="67" width="11" height="11" fill="#161b22"><title>2025-09-17: 0 commits</title></rect>
<rect class="day-cell" x="581" y="81" width="11" height="11" fill="#161b22"><title>2025-09-18: 0 commits</title></rect>
<rect class="day-cell" x="581" y="95" width="11" height="11" fill="#161b22"><title>2025-09-19: 0 commits</title></rect>
<rect class="day-cell" x="581" y="109" width="11" height="11" fill="#161b22"><title>2025-09-20: 0 commits</title></rect>
<rect class="day-cell" x="595" y="25" width="11" height="11" fill="#161b22"><title>2025-09-21: 0 commits</title></rect>
<rect class="day-cell" x="595" y="39" width="11" height="11" fill="#161b22"><title>2025-09-22: 0 commits</title></rect>
<rect class="day-cell" x="595" y="53" width="11" height="11" fill="#161b22"><title>2025-09-23: 0 commits</title></rect>
<rect class="day-cell" x="595" y="67" width="11" height="11" fill="#161b22"><title>2025-09-24: 0 commits</title></rect>
<rect class="day-cell" x="595" y="81" width="11" height="11" fill="#161b22"><title>2025-09-25: 0 commits</title></rect>
<rect class="day-cell" x="595" y="95" width="11" height="11" fill="#161b22"><title>2025-09-26: 0 commits</title></rect>
<rect class="day-cell" x="595" y="109" width="11" height="11" fill="#161b22"><title>2025-09-27: 0 commits</title></rect>
<rect class="day-cell" x="609" y="25" width="11" height="11" fill="#0e4429"><title>2025-09-28: 5 commits</title></rect>
<rect class="day-cell" x="609" y="39" width="11" height="11" fill="#006d32"><title>2025-09-29: 7 commits</title></rect>
<rect class="day-cell" x="609" y="53" width="11" height="11" fill="#161b22"><title>2025-09-30: 0 commits</title></rect>
<text x="609" y="20" class="month">Oct</text>
<rect class="day-cell" x="609" y="67" width="11" height="11" fill="#0e4429"><title>2025-10-01: 1 commit</title></rect>
<rect class="day-cell" x="609" y="81" width="11" height="11" fill="#161b22"><title>2025-10-02: 0 commits</title></rect>
<rect class="day-cell" x="609" y="95" width="11" height="11" fill="#0e4429"><title>2025-10-03: 3 commits</title></rect>
<rect class="day-cell" x="609" y="109" width="11" height="11" fill="#161b22"><title>2025-10-04: 0 commits</title></rect>
<rect class="day-cell" x="623" y="25" width="11" height="11" fill="#0e4429"><title>2025-10-05: 1 commit</title></rect>
<rect class="day-cell" x="623" y="39" width="11" height="11" fill="#161b22"><title>2025-10-06: 0 commits</title></rect>
<rect class="day-cell" x="623" y="53" width="11" height="11" fill="#161b22"><title>2025-10-07: 0 commits</title></rect>
<rect class="day-cell" x="623" y="67" width="11" height="11" fill="#0e4429"><title>2025-10-08: 2 commits</title></rect>
<rect class="day-cell" x="623" y="81" width="11" height="11" fill="#26a641"><title>2025-10-09: 18 commits</title></rect>
<rect class="day-cell" x="623" y="95" width="11" height="11" fill="#39d353"><title>2025-10-10: 23 commits</title></rect>
<rect class="day-cell" x="623" y="109" width="11" height="11" fill="#0e4429"><title>2025-10-11: 6 commits</title></rect>
<rect class="day-cell" x="637" y="25" width="11" height="11" fill="#0e4429"><title>2025-10-12: 6 commits</title></rect>
<rect class="day-cell" x="637" y="39" width="11" height="11" fill="#006d32"><title>2025-10-13: 8 commits</title></rect>
<rect class="day-cell" x="637" y="53" width="11" height="11" fill="#0e4429"><title>2025-10-14: 1 commit</title></rect>
<rect class="day-cell" x="637" y="67" width="11" height="11" fill="#0e4429"><title>2025-10-15: 6 commits</title></rect>
<rect class="day-cell" x="637" y="81" width="11" height="11" fill="#0e4429"><title>2025-10-16: 1 commit</title></rect>
<rect class="day-cell" x="637" y="95" width="11" height="11" fill="#006d32"><title>2025-10-17: 9 commits</title></rect>
<rect class="day-cell" x="637" y="109" width="11" height="11" fill="#006d32"><title>2025-10-18: 7 commits</title></rect>
<rect class="day-cell" x="651" y="25" width="11" height="11" fill="#39d353"><title>2025-10-19: 24 commits</title></rect>
<rect class="day-cell" x="651" y="39" width="11" height="11" fill="#0e4429"><title>2025-10-20: 2 commits</title></rect>
<rect class="day-cell" x="651" y="53" width="11" height="11" fill="#0e4429"><title>2025-10-21: 1 commit</title></rect>
<rect class="day-cell" x="651" y="67" width="11" height="11" fill="#161b22"><title>2025-10-22: 0 commits</title></rect>
<rect class="day-cell" x="651" y="81" width="11" height="11" fill="#161b22"><title>2025-10-23: 0 commits</title></rect>
<rect class="day-cell" x="651" y="95" width="11" height="11" fill="#161b22"><title>2025-10-24: 0 commits</title></rect>
<rect class="day-cell" x="651" y="109" width="11" height="11" fill="#161b22"><title>2025-10-25: 0 commits</title></rect>
<rect class="day-cell" x="665" y="25" width="11" height="11" fill="#161b22"><title>2025-10-26: 0 commits</title></rect>
<rect class="day-cell" x="665" y="39" width="11" height="11" fill="#161b22"><title>2025-10-27: 0 commits</title></rect>
<rect class="day-cell" x="665" y="53" width="11" height="11" fill="#161b22"><title>2025-10-28: 0 commits</title></rect>
<rect class="day-cell" x="665" y="67" width="11" height="11" fill="#161b22"><title>2025-10-29: 0 commits</title></rect>
<rect class="day-cell" x="665" y="81" width="11" height="11" fill="#0e4429"><title>2025-10-30: 1 commit</title></rect>
<rect class="day-cell" x="665" y="95" width="11" height="11" fill="#0e4429"><title>2025-10-31: 3 commits</title></rect>
<text x="665" y="20" class="month">Nov</text>
<rect class="day-cell" x="665" y="109" width="11" height="11" fill="#161b22"><title>2025-11-01: 0 commits</title></rect>
<rect class="day-cell" x="679" y="25" width="11" height="11" fill="#0e4429"><title>2025-11-02: 3 commits</title></rect>
<rect class="day-cell" x="679" y="39" width="11" height="11" fill="#0e4429"><title>2025-11-03: 6 commits</title></rect>
<rect class="day-cell" x="679" y="53" width="11" height="11" fill="#0e4429"><title>2025-11-04: 2 commits</title></rect>
<rect class="day-cell" x="679" y="67" width="11" height="11" fill="#0e4429"><title>2025-11-05: 2 commits</title></rect>
<rect class="day-cell" x="679" y="81" width="11" height="11" fill="#161b22"><title>2025-11-06: 0 commits</title></rect>
<rect class="day-cell" x="679" y="95" width="11" height="11" fill="#161b22"><title>2025-11-07: 0 commits</title></rect>
<rect class="day-cell" x="679" y="109" width="11" height="11" fill="#161b22"><title>2025-11-08: 0 commits</title></rect>
<rect class="day-cell" x="693" y="25" width="11" height="11" fill="#161b22"><title>2025-11-09: 0 commits</title></rect>
<rect class="day-cell" x="693" y="39" width="11" height="11" fill="#0e4429"><title>2025-11-10: 1 commit</title></rect>
<rect class="day-cell" x="693" y="53" width="11" height="11" fill="#161b22"><title>2025-11-11: 0 commits</title></rect>
<rect class="day-cell" x="693" y="67" width="11" height="11" fill="#161b22"><title>2025-11-12: 0 commits</title></rect>
<rect class="day-cell" x="693" y="81" width="11" height="11" fill="#161b22"><title>2025-11-13: 0 commits</title></rect>
<rect class="day-cell" x="693" y="95" width="11" height="11" fill="#26a641"><title>2025-11-14: 16 commits</title></rect>
<rect class="day-cell" x="693" y="109" width="11" height="11" fill="#0e4429"><title>2025-11-15: 1 commit</title></rect>
<rect class="day-cell" x="707" y="25" width="11" height="11" fill="#26a641"><title>2025-11-16: 18 commits</title></rect>
<rect class="day-cell" x="707" y="39" width="11" height="11" fill="#161b22"><title>2025-11-17: 0 commits</title></rect>
<rect class="day-cell" x="707" y="53" width="11" height="11" fill="#161b22"><title>2025-11-18: 0 commits</title></rect>
<rect class="day-cell" x="707" y="67" width="11" height="11" fill="#161b22"><title>2025-11-19: 0 commits</title></rect>
<rect class="day-cell" x="707" y="81" width="11" height="11" fill="#0e4429"><title>2025-11-20: 1 commit</title></rect>
<rect class="day-cell" x="707" y="95" width="11" height="11" fill="#161b22"><title>2025-11-21: 0 commits</title></rect>
<rect class="day-cell" x="707" y="109" width="11" height="11" fill="#161b22"><title>2025-11-22: 0 commits</title></rect>
<rect class="day-cell" x="721" y="25" width="11" height="11" fill="#161b22"><title>2025-11-23: 0 commits</title></rect>
<rect class="day-cell" x="721" y="39" width="11" height="11" fill="#161b22"><title>2025-11-24: 0 commits</title></rect>
<rect class="day-cell" x="721" y="53" width="11" height="11" fill="#0e4429"><title>2025-11-25: 5 commits</title></rect>
<rect class="day-cell" x="721" y="67" width="11" height="11" fill="#161b22"><title>2025-11-26: 0 commits</title></rect>
<rect class="day-cell" x="721" y="81" width="11" height="11" fill="#0e4429"><title>2025-11-27: 1 commit</title></rect>
<rect class="day-cell" x="721" y="95" width="11" height="11" fill="#0e4429"><title>2025-11-28: 1 commit</title></rect>
<rect class="day-cell" x="721" y="109" width="11" height="11" fill="#0e4429"><title>2025-11-29: 5 commits</title></rect>
<rect class="day-cell" x="735" y="25" width="11" height="11" fill="#39d353"><title>2025-11-30: 20 commits</title></rect>
<text x="735" y="20" class="month">Dec</text>
<rect class="day-cell" x="735" y="39" width="11" height="11" fill="#006d32"><title>2025-12-01: 10 commits</title></rect>
<rect class="day-cell" x="735" y="53" width="11" height="11" fill="#0e4429"><title>2025-12-02: 1 commit</title></rect>
<rect class="day-cell" x="735" y="67" width="11" height="11" fill="#161b22"><title>2025-12-03: 0 commits</title></rect>
<rect class="day-cell" x="735" y="81" width="11" height="11" fill="#0e4429"><title>2025-12-04: 3 commits</title></rect>
<rect class="day-cell" x="735" y="95" width="11" height="11" fill="#161b22"><title>2025-12-05: 0 commits</title></rect>
<rect class="day-cell" x="735" y="109" width="11" height="11" fill="#161b22"><title>2025-12-06: 0 commits</title></rect>
<rect class="day-cell" x="749" y="25" width="11" height="11" fill="#161b22"><title>2025-12-07: 0 commits</title></rect>
<rect class="day-cell" x="749" y="39" width="11" height="11" fill="#161b22"><title>2025-12-08: 0 commits</title></rect>
<rect class="day-cell" x="749" y="53" width="11" height="11" fill="#161b22"><title>2025-12-09: 0 commits</title></rect>
<rect class="day-cell" x="749" y="67" width="11" height="11" fill="#161b22"><title>2025-12-10: 0 commits</title></rect>
<rect class="day-cell" x="749" y="81" width="11" height="11" fill="#161b22"><title>2025-12-11: 0 commits</title></rect>
<rect class="day-cell" x="749" y="95" width="11" height="11" fill="#26a641"><title>2025-12-12: 15 commits</title></rect>
<rect class="day-cell" x="749" y="109" width="11" height="11" fill="#161b22"><title>2025-12-13: 0 commits</title></rect>
<rect class="day-cell" x="763" y="25" width="11" height="11" fill="#26a641"><title>2025-12-14: 14 commits</title></rect>
<rect class="day-cell" x="763" y="39" width="11" height="11" fill="#39d353"><title>2025-12-15: 22 commits</title></rect>
<rect class="day-cell" x="763" y="53" width="11" height="11" fill="#161b22"><title>2025-12-16: 0 commits</title></rect>
<rect class="day-cell" x="763" y="67" width="11" height="11" fill="#0e4429"><title>2025-12-17: 4 commits</title></rect>
<rect class="day-cell" x="763" y="81" width="11" height="11" fill="#161b22"><title>2025-12-18: 0 commits</title></rect>
<rect class="day-cell" x="763" y="95" width="11" height="11" fill="#161b22"><title>2025-12-19: 0 commits</title></rect>
<text x="607" y="162" class="day">Less</text>
<rect x="637" y="153" width="11" height="11" fill="#161b22" rx="2" ry="2"/>
<rect x="651" y="153" width="11" height="11" fill="#0e4429" rx="2" ry="2"/>
<rect x="665" y="153" width="11" height="11" fill="#006d32" rx="2" ry="2"/>
<rect x="679" y="153" width="11" height="11" fill="#26a641" rx="2" ry="2"/>
<rect x="693" y="153" width="11" height="11" fill="#39d353" rx="2" ry="2"/>
<text x="712" y="162" class="day">More</text>
<text x="35" y="163" class="stats">286 contributions in the last year</text>
</svg>